<svg xmlns="http://www.w3.org/2000/svg" viewBox="0 0 443 123.4" xmlns:v="https://vecta.io/nano"><path d="M8 5.9h13.8v74.3H8V5.9zm23.1 14.8h13.6V28c4-5.2 10.1-8.5 17.8-8.5 15 0 23.6 9.3 23.6 25.4v35.3H72.2V46.3c0-9.3-4.5-15-13.4-15-7.8 0-13.9 5.7-13.9 16.2v32.7H31.1V20.7zm62.7 46.8l32.9-48.3H94.9V5.9h48v12.6L110 67h32.9v13.2H93.8V67.5zm51.9-17c0-17.4 13.6-31 30.8-31 17.1 0 30.8 13.6 30.8 31 0 17.1-13.7 30.9-30.8 30.9-17.2 0-30.8-13.8-30.8-30.9zm48.1 0c0-10.1-7.5-18.1-17.3-18.1-9.9 0-17.3 8-17.3 18.1 0 9.9 7.4 18 17.3 18 9.8 0 17.3-8.2 17.3-18zm19.5-29.8H227V28c4-5.2 10.1-8.5 17.8-8.5 15 0 23.6 9.3 23.6 25.4v35.3h-13.9V46.3c0-9.3-4.5-15-13.4-15-7.8 0-13.9 5.7-13.9 16.2v32.7h-13.7V20.7zm61.1 29.9c0-17.4 13.5-31.1 30.9-31.1 17.7 0 30.6 13 30.6 30.6v5.2h-48.4c1.9 8.4 8.5 14 18.3 14 7.7 0 13.6-4.1 16.5-10.5l11.3 6.5c-5.2 9.7-14.3 16.1-27.8 16.1-18.7 0-31.4-13.6-31.4-30.8zm13.8-6.8H322c-2-8-8.1-12.2-16.7-12.2-8.2-.1-14.6 4.8-17.1 12.2zM28.1 103.1c.9 1.1 1.3 2.4 1.3 4.1 0 2.1-.8 3.8-2.4 4.9-1.6 1.2-3.9 1.7-7 1.7H8.6v-25h10.8c2.8 0 4.9.6 6.5 1.7 1.5 1.1 2.3 2.7 2.3 4.7 0 1.4-.3 2.6-1 3.5-.7 1-1.6 1.7-2.8 2.2 1.5.4 2.8 1.1 3.7 2.2zM11.2 91v9.1h8c2 0 3.6-.4 4.7-1.2s1.6-1.9 1.6-3.4-.5-2.6-1.6-3.4-2.7-1.2-4.7-1.2h-8zm13.9 19.5c1.1-.8 1.7-1.9 1.7-3.6 0-3.1-2.3-4.7-6.8-4.7h-8.8v9.4H20c2.2 0 3.9-.3 5.1-1.1zm26.2-5.3H35.6c.1 1.9.9 3.5 2.2 4.7 1.4 1.2 3.1 1.8 5.1 1.8a8.29 8.29 0 0 0 3.2-.6c1-.4 1.8-1 2.5-1.8l1.4 1.6c-.8 1-1.9 1.8-3.1 2.3a10.7 10.7 0 0 1-4.1.8c-1.9 0-3.6-.4-5.1-1.2s-2.6-2-3.5-3.4c-.8-1.5-1.2-3.1-1.2-4.9s.4-3.5 1.2-4.9a8.32 8.32 0 0 1 3.3-3.4c1.4-.8 3-1.2 4.7-1.2s3.3.4 4.7 1.2 2.5 1.9 3.2 3.4c.8 1.4 1.2 3.1 1.2 4.9v.7zm-13.7-6.4c-1.2 1.2-1.9 2.7-2.1 4.5h13.3c-.2-1.9-.9-3.4-2.1-4.5-1.2-1.2-2.8-1.7-4.6-1.7-1.7 0-3.2.6-4.5 1.7zM78 96.7c1.3 1.2 2 3 2 5.4v11.6h-2.4v-2.9c-.6 1-1.4 1.7-2.5 2.3-1.1.5-2.4.8-3.9.8-2.1 0-3.8-.5-5-1.5s-1.9-2.3-1.9-4c0-1.6.6-2.9 1.7-3.9 1.2-1 3-1.5 5.5-1.5h6v-1.1c0-1.6-.5-2.8-1.4-3.7-.9-.8-2.2-1.3-4-1.3-1.2 0-2.3.2-3.4.6s-2 .9-2.8 1.6l-1.1-1.9c1-.8 2.1-1.4 3.4-1.9 1.3-.4 2.7-.7 4.2-.7 2.4.3 4.3.9 5.6 2.1zM75.2 111c1-.7 1.8-1.6 2.3-2.8v-3.1h-5.9c-3.2 0-4.8 1.1-4.8 3.4 0 1.1.4 2 1.2 2.6s2 .9 3.5.9c1.4 0 2.6-.3 3.7-1zm23.1 2.1c-1.7-.6-3-1.4-3.9-2.4l1-2c.9.9 2.1 1.6 3.6 2.2s3 .8 4.6.8c2.2 0 3.9-.4 5-1.2s1.7-1.9 1.7-3.2c0-1-.3-1.8-.9-2.4s-1.3-1.1-2.2-1.4l-3.7-1.1L99 101c-1.1-.4-2.1-1.1-2.9-2-.7-.8-1.1-2-1.1-3.5 0-1.3.3-2.4 1-3.4a7.16 7.16 0 0 1 3.1-2.5c1.4-.6 3.1-.9 5.1-.9 1.4 0 2.8.2 4.2.6s2.6.9 3.5 1.6L111 93c-1-.7-2.2-1.2-3.4-1.6-1.2-.3-2.4-.5-3.5-.5-2.2 0-3.8.4-4.9 1.3-1.1.8-1.7 1.9-1.7 3.3 0 1 .3 1.8.9 2.4s1.4 1.1 2.3 1.4l3.7 1.1 4.4 1.3c1.1.4 2.1 1.1 2.9 2s1.2 2.1 1.2 3.6c0 1.3-.3 2.4-1 3.4a7.16 7.16 0 0 1-3.1 2.5c-1.4.6-3.1.9-5.2.9-1.8-.1-3.6-.4-5.3-1zM135.1 95v18.8h-2.4v-3.4c-.7 1.1-1.6 2-2.7 2.7-1.2.6-2.5.9-4 .9-2.4 0-4.4-.7-5.8-2.1s-2.1-3.4-2.1-6V95h2.5v10.6c0 2 .5 3.5 1.5 4.5s2.4 1.5 4.2 1.5c2 0 3.5-.6 4.7-1.8 1.1-1.2 1.7-2.9 1.7-5V95h2.4zm9.9 17.8a7.97 7.97 0 0 1-3.4-3.4c-.8-1.5-1.2-3.1-1.2-4.9s.4-3.5 1.2-4.9c.8-1.5 2-2.6 3.4-3.4 1.5-.8 3.1-1.2 5-1.2 1.6 0 3.1.3 4.3.9 1.3.6 2.3 1.6 3 2.8l-1.9 1.3a6.11 6.11 0 0 0-2.4-2.1c-1-.5-2-.7-3.1-.7-1.4 0-2.6.3-3.7.9s-1.9 1.5-2.5 2.6-.9 2.4-.9 3.8c0 1.5.3 2.7.9 3.8a6.95 6.95 0 0 0 2.5 2.6c1.1.6 2.3.9 3.7.9 1.1 0 2.2-.2 3.1-.7 1-.5 1.7-1.1 2.4-2.1l1.9 1.3c-.7 1.2-1.7 2.1-3 2.8-1.3.6-2.7.9-4.3.9-1.9 0-3.6-.4-5-1.2zm19.7 0a7.97 7.97 0 0 1-3.4-3.4c-.8-1.5-1.2-3.1-1.2-4.9s.4-3.5 1.2-4.9c.8-1.5 2-2.6 3.4-3.4 1.5-.8 3.1-1.2 5-1.2 1.6 0 3.1.3 4.3.9 1.3.6 2.3 1.6 3 2.8l-1.9 1.3a6.11 6.11 0 0 0-2.4-2.1c-1-.5-2-.7-3.1-.7-1.4 0-2.6.3-3.7.9s-1.9 1.5-2.5 2.6-.9 2.4-.9 3.8c0 1.5.3 2.7.9 3.8a6.95 6.95 0 0 0 2.5 2.6c1.1.6 2.3.9 3.7.9 1.1 0 2.2-.2 3.1-.7 1-.5 1.7-1.1 2.4-2.1l1.9 1.3c-.7 1.2-1.7 2.1-3 2.8-1.3.6-2.7.9-4.3.9-1.9 0-3.5-.4-5-1.2zm33.3-7.6h-15.7c.1 1.9.9 3.5 2.2 4.7 1.4 1.2 3.1 1.8 5.1 1.8a8.29 8.29 0 0 0 3.2-.6c1-.4 1.8-1 2.5-1.8l1.4 1.6c-.8 1-1.9 1.8-3.1 2.3a10.7 10.7 0 0 1-4.1.8c-1.9 0-3.6-.4-5.1-1.2s-2.6-2-3.5-3.4c-.8-1.5-1.2-3.1-1.2-4.9s.4-3.5 1.2-4.9a8.32 8.32 0 0 1 3.3-3.4c1.4-.8 3-1.2 4.7-1.2s3.3.4 4.7 1.2 2.5 1.9 3.2 3.4c.8 1.4 1.2 3.1 1.2 4.9v.7zm-13.6-6.4c-1.2 1.2-1.9 2.7-2.1 4.5h13.3c-.2-1.9-.9-3.4-2.1-4.5-1.2-1.2-2.8-1.7-4.6-1.7s-3.3.6-4.5 1.7zm19.5 14.5c-1.4-.4-2.5-1-3.3-1.7l1.1-2c.8.6 1.8 1.1 3 1.5s2.4.6 3.7.6c1.7 0 3-.3 3.8-.8s1.2-1.3 1.2-2.3c0-.7-.2-1.2-.7-1.6s-1-.7-1.7-.9-1.6-.4-2.7-.6l-3.7-.9a6.08 6.08 0 0 1-2.4-1.5c-.7-.7-1-1.7-1-3 0-1.6.7-2.9 2-3.9s3.1-1.5 5.5-1.5c1.2 0 2.4.2 3.6.5s2.2.7 3 1.3l-1.1 2c-1.5-1.1-3.4-1.6-5.5-1.6-1.6 0-2.8.3-3.7.9-.8.6-1.2 1.3-1.2 2.2 0 .7.2 1.3.7 1.7s1 .7 1.7.9 1.6.4 2.9.6l3.6.9c.9.3 1.7.8 2.3 1.5s1 1.6 1 2.9c0 1.6-.7 2.9-2.1 3.9s-3.3 1.4-5.7 1.4c-1.5.2-2.9 0-4.3-.5zm17.4 0c-1.4-.4-2.5-1-3.3-1.7l1.1-2c.8.6 1.8 1.1 3 1.5s2.4.6 3.7.6c1.7 0 3-.3 3.8-.8s1.2-1.3 1.2-2.3c0-.7-.2-1.2-.7-1.6s-1-.7-1.7-.9-1.6-.4-2.7-.6l-3.7-.9a6.08 6.08 0 0 1-2.4-1.5c-.7-.7-1-1.7-1-3 0-1.6.7-2.9 2-3.9s3.1-1.5 5.5-1.5c1.2 0 2.4.2 3.6.5s2.2.7 3 1.3l-1.1 2c-1.5-1.1-3.4-1.6-5.5-1.6-1.6 0-2.8.3-3.7.9-.8.6-1.2 1.3-1.2 2.2 0 .7.2 1.3.7 1.7s1 .7 1.7.9 1.6.4 2.9.6l3.6.9c.9.3 1.7.8 2.3 1.5s1 1.6 1 2.9c0 1.6-.7 2.9-2.1 3.9s-3.3 1.4-5.7 1.4c-1.4.2-2.9 0-4.3-.5zm28.2-.2c-1.7-.6-3-1.4-3.9-2.4l1-2c.9.9 2.1 1.6 3.6 2.2s3 .8 4.6.8c2.2 0 3.9-.4 5-1.2s1.7-1.9 1.7-3.2c0-1-.3-1.8-.9-2.4s-1.3-1.1-2.2-1.4l-3.7-1.1-4.5-1.4c-1.1-.4-2.1-1.1-2.9-2s-1.2-2.1-1.2-3.7c0-1.3.3-2.4 1-3.4a7.16 7.16 0 0 1 3.1-2.5c1.4-.6 3.1-.9 5.1-.9 1.4 0 2.8.2 4.2.6s2.6.9 3.5 1.6l-.9 2.1c-1-.7-2.2-1.2-3.4-1.6-1.2-.3-2.4-.5-3.5-.5-2.2 0-3.8.4-4.9 1.3-1.1.8-1.7 1.9-1.7 3.3 0 1 .3 1.8.9 2.4s1.4 1.1 2.3 1.4l3.7 1.1 4.4 1.3c1.1.4 2.1 1.1 2.9 2s1.2 2.1 1.2 3.6c0 1.3-.3 2.4-1 3.4a7.16 7.16 0 0 1-3.1 2.5c-1.4.6-3.1.9-5.2.9-1.7.1-3.5-.2-5.2-.8zm29.8-.4c-.5.4-1.1.8-1.8 1s-1.4.3-2.2.3c-1.8 0-3.1-.5-4.1-1.4-1-1-1.4-2.3-1.4-4V97.2h-3.4V95h3.4v-4.1h2.5V95h5.7v2.1h-5.7v11.2c0 1.1.3 2 .8 2.6.6.6 1.4.9 2.4.9.5 0 1-.1 1.5-.2.5-.2.9-.4 1.3-.7l1 1.8zm6.7.1c-1.5-.8-2.6-2-3.4-3.4-.8-1.5-1.2-3.1-1.2-4.9s.4-3.5 1.2-4.9c.8-1.5 2-2.6 3.4-3.4 1.5-.8 3.1-1.2 4.9-1.2s3.4.4 4.9 1.2a7.97 7.97 0 0 1 3.4 3.4c.8 1.5 1.2 3.1 1.2 4.9s-.4 3.5-1.2 4.9c-.8 1.5-2 2.6-3.4 3.4-1.5.8-3.1 1.2-4.9 1.2s-3.5-.4-4.9-1.2zm8.5-2c1.1-.6 1.9-1.5 2.5-2.6s.9-2.4.9-3.8-.3-2.7-.9-3.8-1.4-2-2.5-2.6-2.3-.9-3.6-.9-2.5.3-3.6.9-1.9 1.5-2.5 2.6-.9 2.4-.9 3.8.3 2.7.9 3.8 1.4 2 2.5 2.6 2.3.9 3.6.9 2.5-.3 3.6-.9zm16.1-14.9c1.2-.6 2.6-1 4.4-1v2.5h-.6c-2 0-3.5.6-4.6 1.8s-1.7 2.9-1.7 5.1v9.6h-2.5V95h2.4v3.7c.6-1.2 1.5-2.2 2.6-2.8zm25.6-.9l-9.4 21c-.8 1.8-1.6 3-2.6 3.7s-2.2 1.1-3.6 1.1c-.9 0-1.7-.1-2.5-.4s-1.5-.7-2-1.3l1.2-1.9c1 1 2.1 1.4 3.4 1.4.9 0 1.6-.2 2.2-.7s1.2-1.3 1.7-2.4l.8-1.8-8.5-18.7h2.6l7.1 15.9 7.1-15.9h2.5z" fill="#104ea6"/><path d="M351.8 31.8h20.1c.3 0 .6.1.8.3l34.7 34.8-34.5 35.3c-.2.2-.5.3-.8.3h-20.9L387 67.1l-35.2-35.3z" fill="#f0b142"/><path d="M379.9 31.8H400c.3 0 .6.1.8.3l34.7 34.8-34.5 35.3c-.2.2-.5.3-.8.3h-20.9l35.8-35.4-35.2-35.3z" fill="#17af12"/></svg>