<?xml version="1.0" encoding="utf-8"?>
<!-- Generator: Adobe Illustrator 27.7.0, SVG Export Plug-In . SVG Version: 6.00 Build 0)  -->
<svg version="1.1" id="Layer_1" xmlns="http://www.w3.org/2000/svg" xmlns:xlink="http://www.w3.org/1999/xlink" x="0px" y="0px"
	 viewBox="0 0 418.5 222.9" style="enable-background:new 0 0 418.5 222.9;" xml:space="preserve">
<style type="text/css">
	.st0{fill:#1A1A1A;}
	.st1{fill:#D80E0E;}
	.st2{fill:#FFFFFF;}
</style>
<g>
	<g>
		<g>
			<g>
				<g>
					<rect x="8.1" y="30.6" class="st0" width="199.8" height="58.3"/>
				</g>
			</g>
		</g>
		<g>
			<g>
				<g>
					<rect x="8.1" y="97.8" class="st1" width="318.4" height="62.3"/>
				</g>
			</g>
		</g>
		<g>
			<g>
				<g>
					<path class="st2" d="M23.1,41.9h17.1c4,0,7.5,0.7,10.5,2.2c3.1,1.5,5.4,3.6,7.1,6.3c1.7,2.7,2.5,5.9,2.5,9.5
						c0,3.6-0.8,6.8-2.5,9.5c-1.7,2.7-4.1,4.8-7.1,6.3c-3.1,1.5-6.6,2.2-10.5,2.2H23.1V41.9z M39.8,69.9c3.1,0,5.6-0.9,7.5-2.6
						c1.9-1.8,2.8-4.2,2.8-7.3c0-3.1-0.9-5.5-2.8-7.3c-1.9-1.8-4.4-2.6-7.5-2.6h-6.5v19.8H39.8z"/>
				</g>
			</g>
			<g>
				<g>
					<path class="st2" d="M65.7,41.9H76v36.1H65.7V41.9z"/>
				</g>
			</g>
			<g>
				<g>
					<path class="st2" d="M107.4,71H92.2l-2.8,7H78.9l15.9-36.1h10.1l16,36.1h-10.6L107.4,71z M104.5,63.5l-4.6-11.6l-4.6,11.6
						H104.5z"/>
				</g>
			</g>
			<g>
				<g>
					<path class="st2" d="M139.6,68.5H134v9.6h-10.2V41.9h16.5c3.3,0,6.1,0.5,8.5,1.6c2.4,1.1,4.3,2.6,5.6,4.6c1.3,2,2,4.4,2,7.1
						c0,2.6-0.6,4.9-1.8,6.8c-1.2,1.9-3,3.5-5.2,4.6l7.8,11.4h-10.9L139.6,68.5z M144.5,51.4c-1.1-0.9-2.6-1.4-4.7-1.4H134v10.6h5.7
						c2.1,0,3.7-0.5,4.7-1.4c1.1-0.9,1.6-2.2,1.6-3.9C146.1,53.6,145.5,52.3,144.5,51.4z"/>
				</g>
			</g>
			<g>
				<g>
					<path class="st2" d="M180.8,65.1v13h-10.2V64.9l-13.8-23h10.8l8.6,14.3l8.6-14.3h9.9L180.8,65.1z"/>
				</g>
			</g>
			<g>
				<g>
					<path class="st0" d="M236.2,65.2c-0.2,1.3-0.6,3-1.3,4.9c-0.7,2-1.7,3.9-2.9,5.7c-1.2,1.8-2.7,3.3-4.4,4.5
						c-1.7,1.2-3.7,1.7-5.9,1.5c-1-0.1-1.9-0.4-2.9-1c-1-0.6-1.8-1.4-2.5-2.4c-0.7-1-1.2-2.2-1.6-3.6c-0.4-1.4-0.4-2.9-0.2-4.6
						c0.4-3,1.1-5.6,2.2-7.8c1.1-2.2,2.3-4,3.5-5.4c0.6-0.7,1.4-0.9,2.4-0.6c1,0.3,1.8,0.9,2.5,1.9c-1.4-2.2-2-4.3-1.9-6.2
						c0.1-1.9,0.6-3.5,1.5-4.7c0.9-1.2,2-2,3.4-2.3c1.4-0.3,2.8-0.1,4.1,0.8c1.3,0.9,2.5,2.4,3.4,4.7c1,2.3,1.4,5.3,1.3,9.3
						c0.8,0.3,1.6,0.5,2.5,0.6c0.9,0.1,1.7,0,2.6-0.1c0.9-0.1,1.7-0.3,2.5-0.5c0.8-0.2,1.5-0.4,2.1-0.6c0.5-0.2,0.9-0.1,1.1,0.3
						c0.3,0.4,0.5,0.9,0.6,1.4c0.1,0.6,0.1,1.1-0.1,1.7c-0.1,0.6-0.4,1-0.7,1.1c-2.3,1.2-4.4,1.8-6.5,1.9
						C239.1,65.7,237.4,65.6,236.2,65.2z M226,60.1c0.2,0.4,0.2,0.8,0.2,1.1c-0.1,0.4-0.3,0.8-0.8,1.3c-1,1-1.8,2.3-2.5,3.8
						c-0.7,1.5-1.3,2.9-1.6,4.2c-0.3,1.3-0.4,2.5-0.3,3.4c0.2,0.9,0.7,1.3,1.6,1.3c0.8-0.1,1.6-0.5,2.5-1.4c0.9-0.9,1.7-1.9,2.4-3.1
						c0.7-1.2,1.4-2.4,1.9-3.8c0.6-1.3,0.9-2.5,1.1-3.5c-0.7-0.3-1.5-0.7-2.4-1.3C227.2,61.4,226.5,60.8,226,60.1z M228.8,51.1
						c-0.3,0.2-0.4,0.6-0.4,1.1c0,0.5,0.1,1.1,0.3,1.8c0.2,0.7,0.5,1.3,1,1.9c0.4,0.6,1,1.1,1.6,1.5c0.1-0.8,0-1.6,0-2.4
						c-0.1-0.9-0.2-1.6-0.4-2.3c-0.2-0.7-0.5-1.2-0.8-1.5C229.5,50.9,229.2,50.9,228.8,51.1z"/>
				</g>
			</g>
			<g>
				<g>
					<path class="st0" d="M251.1,72.3c0.2,2,0.2,4.2-0.2,6.8c-0.3,2.6-0.8,5.2-1.5,7.9c-0.7,2.7-1.6,5.3-2.7,7.8
						c-1.1,2.5-2.2,4.7-3.5,6.6c-1.3,1.9-2.6,3.3-4,4.2c-1.4,0.9-2.9,1.1-4.3,0.6c-1.6-0.6-2.6-1.9-3-4.1c-0.3-2.2-0.2-4.9,0.3-8.1
						c0.6-3.2,1.5-6.8,2.9-10.7c1.4-3.9,3-8,4.8-12.1c1.8-4.2,3.7-8.2,5.8-12.3c2.1-4,4.1-7.8,6.2-11.2c2-3.4,4-6.4,5.8-8.8
						c1.8-2.4,3.4-4.2,4.8-5.2c0.7-0.6,1.5-0.6,2.2,0c0.7,0.6,1.3,1.3,1.8,2.3c0.4,1,0.7,2,0.7,3.2c0,1.1-0.3,2-1.1,2.7
						c-1.9,1.6-3.6,3.4-5.2,5.3c-1.6,1.9-3,3.8-4.4,5.8c-1.3,2-2.5,4-3.6,6c-1.1,2-2,3.9-2.9,5.8c1.6,0.4,3.3,0.5,5.1,0.3
						c1.8-0.2,3.5-0.6,5.1-1.1c1.6-0.6,3.1-1.3,4.5-2.2c1.4-0.9,2.5-2,3.4-3.2c0.4-0.4,0.8-0.6,1.2-0.5c0.4,0.1,0.8,0.4,1.1,0.9
						c0.3,0.5,0.4,1.1,0.4,1.8c0,0.7-0.3,1.4-0.8,2.1c-1.1,1.5-2.4,2.8-3.9,3.9c-1.5,1.1-3.1,2.1-4.8,2.9c-1.7,0.8-3.4,1.5-5.2,1.9
						C254.4,72.2,252.7,72.4,251.1,72.3z M246.2,72.8c-1.6,3.6-2.9,6.9-4.1,10c-1.1,3.1-2,5.8-2.7,8.1c-0.6,2.3-1,4.1-1.2,5.4
						c-0.2,1.3-0.1,1.8,0.3,1.6c0.5-0.2,1.2-1.1,2.1-2.6c1-1.6,1.9-3.5,2.7-5.8c0.9-2.3,1.6-5,2.2-7.9
						C246.2,78.6,246.4,75.7,246.2,72.8z"/>
				</g>
			</g>
			<g>
				<g>
					<path class="st0" d="M302.6,63.2c-1.5,1.7-3.2,3.8-5.1,6.3c-1.9,2.5-3.9,4.9-5.9,7.1c-2,2.3-4.1,4-6.2,5.4
						c-2.1,1.3-4.1,1.6-6,1c-1.3-0.4-2.1-1.3-2.5-2.7c-0.4-1.3-0.4-2.9-0.2-4.7c0.3-1.8,0.9-3.8,1.8-5.8c0.9-2.1,2-4.2,3.4-6.2
						c1.3-2.1,2.8-4,4.5-5.8c1.7-1.8,3.4-3.3,5.2-4.5c2.1-1.5,4.1-1.9,5.9-1.3c1.8,0.6,3.4,2,4.6,4.2c0.4-0.4,0.8-1,1.3-1.7
						c0.5-0.7,1.1-1.4,1.6-2.2c0.6-0.8,1.1-1.5,1.7-2.2c0.6-0.7,1-1.2,1.5-1.6c0.7-0.7,1.4-1,2.2-1c0.8,0,1.5,0.3,2,0.8
						c0.6,0.5,0.9,1.2,1.1,2c0.2,0.9,0,1.8-0.4,2.9c-2.9,6.4-4.8,11.3-5.7,14.5c-0.9,3.3-1,5.2-0.2,5.7c0.8,0.5,2.4-0.3,4.9-2.5
						c2.5-2.2,5.7-5.5,9.6-9.9c0.5-0.5,0.9-0.7,1.3-0.7c0.4,0,0.8,0.2,1,0.6c0.2,0.4,0.3,0.9,0.3,1.5c-0.1,0.6-0.3,1.3-0.9,2.1
						c-5,7-9.1,11.6-12.4,13.9c-3.3,2.3-6.1,2.8-8.3,1.4c-1.4-0.9-2.2-2.6-2.5-5.1C300.2,72.2,300.9,68.3,302.6,63.2z M287.8,72.4
						c0.9-0.8,1.9-1.7,3.1-2.9c1.1-1.2,2.2-2.4,3.3-3.7c1.1-1.3,2-2.5,2.9-3.6c0.8-1.1,1.4-2,1.7-2.6c0.2-0.4,0.1-0.8-0.3-1.1
						c-0.4-0.3-1.1-0.3-2-0.1c-0.9,0.3-2.1,0.9-3.5,2c-1.4,1.1-3,2.8-4.7,5.1c-0.4,0.5-0.8,1.2-1.4,2c-0.6,0.9-1.1,1.7-1.5,2.6
						c-0.4,0.9-0.8,1.7-1.1,2.4c-0.3,0.8-0.4,1.3-0.3,1.7c0.1,0.3,0.4,0.4,1,0.2C285.5,74.2,286.4,73.5,287.8,72.4z"/>
				</g>
			</g>
			<g>
				<g>
					<path class="st2" d="M34.5,118.1v8.6h17.2v8.5H34.5v13.3h-11v-38.9H54v8.5H34.5z"/>
				</g>
			</g>
			<g>
				<g>
					<path class="st2" d="M67.3,146.7c-3.3-1.7-5.9-4.2-7.7-7.2c-1.9-3.1-2.8-6.5-2.8-10.4c0-3.9,0.9-7.3,2.8-10.4
						c1.9-3.1,4.4-5.5,7.7-7.2c3.3-1.7,7-2.6,11.1-2.6c4.1,0,7.8,0.9,11.1,2.6c3.3,1.7,5.9,4.2,7.7,7.2c1.9,3.1,2.8,6.5,2.8,10.4
						c0,3.9-0.9,7.3-2.8,10.4c-1.9,3.1-4.4,5.5-7.7,7.2c-3.3,1.7-7,2.6-11.1,2.6C74.3,149.3,70.6,148.4,67.3,146.7z M83.8,138.8
						c1.6-0.9,2.9-2.2,3.8-3.9c0.9-1.7,1.4-3.6,1.4-5.8c0-2.2-0.5-4.1-1.4-5.8c-0.9-1.7-2.2-3-3.8-3.9c-1.6-0.9-3.4-1.4-5.3-1.4
						c-2,0-3.7,0.5-5.3,1.4c-1.6,0.9-2.9,2.2-3.8,3.9c-0.9,1.7-1.4,3.6-1.4,5.8c0,2.2,0.5,4.1,1.4,5.8c0.9,1.7,2.2,3,3.8,3.9
						c1.6,0.9,3.4,1.4,5.3,1.4C80.4,140.2,82.2,139.7,83.8,138.8z"/>
				</g>
			</g>
			<g>
				<g>
					<path class="st2" d="M110.3,144.6c-3.2-3.2-4.8-7.6-4.8-13.4v-21.6h11v21.2c0,6.2,2.5,9.3,7.4,9.3c4.9,0,7.3-3.1,7.3-9.3v-21.2
						h10.8v21.6c0,5.8-1.6,10.3-4.8,13.4c-3.2,3.2-7.7,4.7-13.5,4.7C118,149.3,113.5,147.7,110.3,144.6z"/>
				</g>
			</g>
			<g>
				<g>
					<path class="st2" d="M186.6,109.6v38.9h-9.1l-17.2-20.7v20.7h-10.8v-38.9h9.1l17.2,20.7v-20.7H186.6z"/>
				</g>
			</g>
			<g>
				<g>
					<path class="st2" d="M194.4,109.6h18.4c4.3,0,8,0.8,11.3,2.4c3.3,1.6,5.9,3.9,7.7,6.8c1.8,2.9,2.7,6.4,2.7,10.3
						c0,3.9-0.9,7.4-2.7,10.3c-1.8,2.9-4.4,5.2-7.7,6.8c-3.3,1.6-7.1,2.4-11.3,2.4h-18.4V109.6z M212.4,139.7c3.3,0,6-0.9,8-2.8
						c2-1.9,3-4.5,3-7.8c0-3.3-1-6-3-7.8c-2-1.9-4.7-2.8-8-2.8h-7v21.4H212.4z"/>
				</g>
			</g>
			<g>
				<g>
					<path class="st2" d="M271.6,140v8.5h-31.3v-38.9h30.5v8.5h-19.6v6.6h17.3v8.2h-17.3v7.1H271.6z"/>
				</g>
			</g>
			<g>
				<g>
					<path class="st2" d="M294.7,138.2h-6v10.3h-11v-38.9h17.8c3.5,0,6.6,0.6,9.2,1.8c2.6,1.2,4.6,2.8,6,5c1.4,2.2,2.1,4.7,2.1,7.6
						c0,2.8-0.7,5.3-2,7.4c-1.3,2.1-3.2,3.7-5.6,4.9l8.4,12.2h-11.8L294.7,138.2z M300,119.8c-1.1-1-2.9-1.5-5.1-1.5h-6.1v11.4h6.1
						c2.3,0,4-0.5,5.1-1.5c1.1-1,1.7-2.4,1.7-4.2C301.7,122.2,301.1,120.8,300,119.8z"/>
				</g>
			</g>
		</g>
	</g>
	<g>
		<g>
			<g>
				<path class="st0" d="M376.5,100.7L376.5,100.7c-9.5,0-17.3-7.7-17.3-17.3V52.1c0-9.5,7.7-17.3,17.3-17.3h0
					c9.5,0,17.3,7.7,17.3,17.3v31.4C393.8,93,386.1,100.7,376.5,100.7z"/>
			</g>
		</g>
		<g>
			<g>
				<path class="st0" d="M376.5,156.6c-2.3,0-4.2-1.9-4.2-4.2v-30.1c0-2.3,1.9-4.2,4.2-4.2s4.2,1.9,4.2,4.2v30.1
					C380.7,154.7,378.8,156.6,376.5,156.6z"/>
			</g>
		</g>
		<g>
			<g>
				<path class="st0" d="M393.4,156.6H360c-2.3,0-4.2-1.9-4.2-4.2c0-2.3,1.9-4.2,4.2-4.2h33.4c2.3,0,4.2,1.9,4.2,4.2
					C397.6,154.7,395.8,156.6,393.4,156.6z"/>
			</g>
		</g>
		<g>
			<g>
				<path class="st0" d="M376.7,126.1c-19.2,0-35.3-15.2-36.2-34.6c0-0.8,0-1.5,0-2.2c0.1-2.3,2-4.1,4.3-4.1c2.3,0.1,4.1,2,4.1,4.3
					c0,0.5,0,1,0,1.5c0.7,15.3,13.7,27.2,29.1,26.6c15.1-0.7,26.8-13.1,26.6-28.2c0-2.3,1.8-4.2,4.1-4.2c2.3,0,4.2,1.8,4.2,4.1
					c0.3,19.7-14.9,35.8-34.6,36.6C377.8,126,377.2,126.1,376.7,126.1z"/>
			</g>
		</g>
	</g>
</g>
<g>
	<path class="st0" d="M82.7,183.9c0,4.5-3.3,7.2-8.6,7.2h-4.6v5.9h-3.8v-20.3H74C79.4,176.7,82.7,179.4,82.7,183.9z M78.9,183.9
		c0-2.5-1.7-4-5-4h-4.4v8.1h4.4C77.2,187.9,78.9,186.4,78.9,183.9z"/>
	<path class="st0" d="M94.5,186.8c0-6,4.6-10.4,10.9-10.4c6.3,0,10.9,4.4,10.9,10.4c0,6-4.6,10.4-10.9,10.4
		C99.2,197.2,94.5,192.8,94.5,186.8z M112.6,186.8c0-4.1-3-7.1-7.1-7.1c-4.1,0-7.1,3-7.1,7.1s3,7.1,7.1,7.1
		C109.5,193.9,112.6,190.9,112.6,186.8z"/>
	<path class="st0" d="M129.6,176.7h8.9c6.6,0,11.1,4.1,11.1,10.1s-4.5,10.1-11.1,10.1h-8.9V176.7z M138.3,193.7c4.5,0,7.4-2.8,7.4-7
		s-2.9-7-7.4-7h-4.9v13.9H138.3z"/>
	<path class="st0" d="M161.3,186.8c0-6.1,4.6-10.4,10.9-10.4c3.3,0,6.1,1.2,8,3.4l-2.4,2.3c-1.5-1.6-3.3-2.4-5.4-2.4
		c-4.2,0-7.2,3-7.2,7.1c0,4.2,3,7.1,7.2,7.1c2.1,0,3.9-0.8,5.4-2.4l2.4,2.3c-1.9,2.2-4.7,3.4-8.1,3.4
		C166,197.2,161.3,192.8,161.3,186.8z"/>
	<path class="st0" d="M205.8,192.2h-10.1l-2,4.7h-3.9l9.1-20.3h3.7l9.2,20.3h-3.9L205.8,192.2z M204.6,189.3l-3.8-8.9l-3.8,8.9
		H204.6z"/>
	<path class="st0" d="M221.9,194.8l1.3-2.9c1.6,1.3,4.2,2.2,6.7,2.2c3.2,0,4.5-1.1,4.5-2.6c0-4.4-12-1.5-12-9c0-3.3,2.6-6.1,8.2-6.1
		c2.4,0,5,0.6,6.7,1.8l-1.2,2.9c-1.8-1.1-3.8-1.6-5.6-1.6c-3.1,0-4.4,1.2-4.4,2.8c0,4.3,12,1.5,12,8.9c0,3.2-2.6,6-8.2,6
		C226.8,197.2,223.6,196.2,221.9,194.8z"/>
	<path class="st0" d="M254.9,179.8h-6.7v-3.2h17.2v3.2h-6.7v17.1h-3.8V179.8z"/>
</g>
</svg>
